<?xml version="1.0" encoding="utf-8"?>
<!-- Generator: Adobe Illustrator 25.0.1, SVG Export Plug-In . SVG Version: 6.00 Build 0)  -->
<svg version="1.1" id="Layer_1" xmlns="http://www.w3.org/2000/svg" xmlns:xlink="http://www.w3.org/1999/xlink" x="0px" y="0px"
	 viewBox="0 0 284.73 96" style="enable-background:new 0 0 284.73 96;" xml:space="preserve">
<style type="text/css">
	.st0{fill:#FEFEFE;}
	.st1{fill:#EDEDED;}
	.st2{fill:#F6F6F6;}
	.st3{fill:#F8F8F8;}
	.st4{fill:#F0F0F0;}
	.st5{fill:#F1F1F1;}
</style>
<g>
	<path class="st0" d="M0.05,95.94C0.05,64.45,0.07,32.96,0,1.48c0-1.44,0.48-1.56,1.6-1.45c0.81,0.08,1.63,0.02,2.45,0.02
		c92.77,0,185.53,0.01,278.3-0.05c1.95,0,2.38,0.39,2.37,2.35c-0.08,30.33-0.09,60.67,0.01,91c0.01,2.35-0.65,2.65-2.79,2.65
		C188,95.93,94.05,95.94,0.05,95.94z"/>
	<path d="M78.92,39.69c0.35,0.64,0.74,1.3,0.3,2.02c-1.81,2.93,0.18,2.61,2.15,2.7c2.58,0.11,4.23-0.7,5.75-2.98
		c2.59-3.9,6.28-6.64,11.08-7.47c5.77-1.01,9.02,1.93,8.32,7.71c-0.22,1.78,0.19,2.02,1.86,2.17c3.01,0.28,4.38-0.84,5.5-3.67
		c3.66-9.25,7.96-18.2,13.52-26.51c3.05-4.56,4.44-4.78,8.06,0.76c0.86,1.31,0.61,2.41-0.57,3.58c-6.69,6.6-11.36,14.53-15.22,23
		c-0.32,0.7-0.87,1.35-0.12,1.83c0.67,0.43,1.36-0.12,1.83-0.73c1.72-2.21,3.87-3.98,6.06-5.69c1.67-1.3,3.71-2.55,5.59-1.52
		c1.75,0.95,2.36,3.18,2.26,5.33c-0.02,0.45-0.04,0.9-0.12,1.35c-0.21,1.25,0.21,1.83,1.45,1.2c3.12-1.58,6.39-1.92,9.79-1.27
		c1.38,0.27,1.42-0.81,1.68-1.62c1.04-3.28,2.29-6.47,4.25-9.34c0.62-0.91,1.18-1.89,2.56-1.5c1.65,0.47,3.39,0.85,4.54,2.24
		c0.51,0.62-0.18,1.16-0.53,1.65c-1.74,2.45-3.08,5.11-4.36,7.81c-0.23,0.47-1.05,1.09-0.12,1.55c0.6,0.3,1.01-0.24,1.51-0.71
		c2.08-1.98,4-4.19,6.6-5.54c3.54-1.83,7.14,0.15,7.53,4.07c0.09,0.95-0.48,2.59,1.3,2.34c1.9-0.26,4.51,1.41,5.54-1.75
		c2.36-7.24,5.43-14.16,9.4-20.67c1.64-2.7,3.43-5.32,5.27-7.88c1.56-2.17,7.22-1.53,8.37,0.86c0.55,1.14-0.53,1.6-1.07,2.23
		c-6.21,7.15-11.53,14.86-14.97,23.73c-0.38,0.97-1.79,2.33-0.46,3.01c1.17,0.6,2.98,0.7,4.28-0.62c1.71-1.74,3.4-3.51,5.48-4.85
		c3.42-2.21,6.17-1.9,9.02,0.94c0.93,0.93,1.53,1.72,0.44,2.97c-0.89,1.01-0.31,1.37,0.81,1.38c2.88,0.04,5.81,0.42,7.57-2.77
		c0.54-0.98,1.6-1.71,2.54-2.42c4.03-3.06,6.91-2.1,8.41,2.81c0.31,1.02,0.53,1.12,1.33,0.35c1.83-1.76,3.37-1.62,5.14,0.32
		c2.19,2.41,7.77,1.39,8.92-1.61c0.29-0.76,0.62-1.5,0.96-2.24c1.5-3.29,2.1-3.45,5.34-1.75c1.83,0.96,2.75,1.97,1.07,3.9
		c-0.53,0.61-1.5,1.74-0.63,2.32c0.97,0.65,2.52,0.69,3.5-0.37c0.92-0.98,1.68-2.13,2.39-3.27c0.85-1.36,1.87-2.24,3.56-1.64
		c1.81,0.64,1.12,2,0.78,3.17c-0.49,1.66,0,2.33,1.8,2.2c1.86-0.12,3.73-0.03,5.65-0.03c-0.13-1.62-1.08-1.13-1.67-1.22
		c-1.64-0.26-1.59-1.54-1.64-2.69c-0.06-1.54,1.2-1.18,1.95-1.01c2.74,0.62,4.07-0.59,5.11-3.03c0.98-2.31,2.42-4.44,3.82-6.54
		c1.27-1.91,5.8-1.74,7.07,0.15c0.56,0.83-0.1,1.34-0.45,1.93c-1.12,1.86-2.2,3.74-3.39,5.55c-1.12,1.71-1.08,2.64,1.32,2.31
		c0.36-0.05,0.72-0.06,1.09-0.08c0.67-0.03,1.31,0.03,1.5,0.82c0.2,0.82-0.36,1.1-1,1.33c-0.57,0.22-1.14,0.46-1.69,0.74
		c-0.71,0.37-1.6,0.52-0.14,1.4c1.34,0.81,0.74,2.52,0.56,3.77c-0.21,1.45-1.61,0.76-2.48,0.8c-5.1,0.23-4.19-1.02-5.97,4.56
		c-1.19,3.7-2.13,7.48-2.2,11.39c-0.06,3.55,1.62,4.52,4.72,2.83c0.45-0.25,1.05-0.25,1.48-0.53c0.54-0.34,0.83-0.1,1.11,0.27
		c0.35,0.47-0.21,0.58-0.39,0.81c-2.11,2.75-4.85,3.71-7.54,2.68c-3.85-1.47-5.84-4.14-5.6-7.68c0.27-3.98,1.23-7.85,2.42-11.64
		c0.54-1.72,0.47-2.55-1.63-2.37c-1.87,0.16-3.63-0.39-4.18,2.61c-0.48,2.64-2.11,2.68-4.03,0.62c-3.51-3.76-3.5-3.76-7.18,0.16
		c-3.99,4.25-5.65,9.57-7.08,15.03c-0.28,1.05,0.48,3.15-1.81,2.86c-1.95-0.24-3.83-2.72-3.43-4.48c0.82-3.61,1.74-7.2,2.75-10.76
		c1.59-5.61,1.63-5.52-4.18-5.48c-1.84,0.01-2.75,0.55-3.28,2.37c-1.15,3.9-2.42,7.77-2.48,11.88c-0.01,0.9-0.01,1.84,0.24,2.68
		c0.4,1.34,1.45,2.65-1.04,3.13c-2.58,0.5-4.13-0.14-4.63-2.38c-0.58-2.62,0.18-5.19,0.48-7.96c-1.15,0.47-1.37,1.5-1.86,2.26
		c-1.75,2.77-3.69,5.39-6.35,7.34c-2.51,1.84-4.83,1.26-6.31-1.48c-1.4-2.59-1.42-5.38-0.93-8.18c0.44-2.5,1.13-4.93,2.23-7.23
		c0.7-1.46,0.26-1.75-1.28-1.9c-3.74-0.35-6.37,0.65-7.78,4.47c-0.99,2.7-2.61,5.17-3.4,7.96c-0.44,1.55-1.41,3.76,1.95,3.03
		c0.38-0.08,0.79,0,0.8,0.45c0.01,0.31-0.16,0.69-0.37,0.94c-1.25,1.47-5.32,2.86-6.42,2.08c-2.25-1.62-2.3-3.82-1.6-6.3
		c0.91-3.22,2.09-6.34,3.25-9.47c0.31-0.83,1.48-1.95,0.42-2.6c-0.99-0.6-2.49-0.45-3.62,0.27c-0.51,0.33-0.88,0.9-1.28,1.38
		c-4.22,5.13-7.57,10.79-10.22,16.87c-0.41,0.93-0.63,2.56-1.82,2.42c-1.43-0.17-1.52-1.88-1.7-3.05c-0.32-2.06-0.09-4.15,0.3-6.2
		c0.56-2.92,1.31-5.81,1.83-8.74c0.15-0.87,1.44-2.04-0.14-2.74c-1.8-0.79-4.79,0.21-5.26,1.64c-1.02,3.11-2.33,6.08-4.2,8.77
		c-2.32,3.33-5.28,5.92-9.06,7.53c-0.94,0.4-1.88,0.62-2.9,0.57c-0.87-0.04-1.7-0.32-2.08-1.06c-0.52-1.02,0.54-1.37,1.11-1.86
		c4.33-3.78,7.12-8.61,9.46-13.74c0.21-0.47,0.27-1,0.41-1.55c-2.05,0-3.94,0.03-5.82-0.01c-1.31-0.03-1.88,0.9-2.56,1.74
		c-4.31,5.35-6.24,11.78-8.18,18.17c-2.01,6.65-3.74,13.39-5.63,20.08c-0.19,0.66-0.07,1.66-0.82,1.87
		c-0.95,0.27-1.24-0.86-1.86-1.33c-1.05-0.78-1.19-1.95-1.36-3.13c-0.83-5.93,0.98-11.48,2.73-16.97
		c1.86-5.84,4.11-11.57,6.21-17.34c1.06-2.91,1.07-2.91-2.14-2.83c-0.45,0.01-0.91,0.03-1.36,0.04c-8.01,0.22-7.99,0.24-14.1,4.88
		c-1.01,0.77-0.67,1.55-0.42,2.39c1.53,5.19,3.73,10.05,8.03,13.55c1.91,1.55,1.2,2.42-0.24,3.49c-3.37,2.5-6.47,1.96-8.37-1.66
		c-2.87-5.46-3.51-11.52-4.48-17.48c-0.16-0.96,0.61-1.43,1.18-2c0.74-0.74,1.79-1.22,2.1-2.36c-3.98-1.02-4.68-0.73-6.63,2.41
		c-2.91,4.7-4.52,9.82-4.96,15.31c-0.05,0.58,0.29,1.38-0.53,1.64c-0.81,0.25-1.31-0.37-1.81-0.92c-2.71-2.96-2.92-6.5-2.21-10.16
		c0.45-2.3,1.15-4.55,1.81-6.8c0.35-1.19,0.08-1.65-1.22-1.62c-5.44,0.15-10.88,0.24-16.32,0.34c-0.88,0.02-1.63,0.19-1.93,1.14
		c-1.21,3.74-1.89,7.53-1.04,11.45c0.5,2.3,1.81,2.89,3.98,1.9c2.56-1.17,5.02-2.51,7.27-4.21c0.41-0.31,0.91-0.85,1.41-0.41
		c0.62,0.54,0.21,1.13-0.23,1.64c-2.52,2.9-5.4,5.38-8.97,6.89c-2.19,0.93-4.1-0.21-5.71-1.6c-4.3-3.72-5.52-8.61-4.64-13.98
		c0.38-2.34-0.26-2.75-2.4-2.63c-4.3,0.24-4.39,0.12-5.48,4.21c-1.04,3.89-2.56,7.8-0.79,11.88c0.28,0.64,0.12,1.06-0.46,1.3
		c-1.36,0.58-2.8,0.96-4.23,0.42c-1.46-0.55-1.83-1.91-1.93-3.31c-0.17-2.45,0.43-4.81,0.61-7.37c-1.15,1.62-2.27,3.26-3.46,4.86
		c-1.36,1.82-2.88,3.5-4.71,4.85c-3.27,2.4-6.05,1.56-7.38-2.3c-1.24-3.6-0.38-7.12,0.56-10.64c0.27-1,1.86-2.31,0.03-3.15
		c-2.16-0.98-5.83,0.15-6.35,1.75c-1.77,5.51-3.3,11.08-3.75,16.88c-0.06,0.76,0.28,1.83-0.7,2.12c-0.91,0.27-1.31-0.73-1.91-1.25
		c-2.59-2.25-2.57-5.23-2.36-8.23c0.19-2.71,0.94-5.32,1.58-7.96c0.23-0.95,1.65-2.54-0.13-2.91c-1.6-0.33-3.91-1.2-5.04,1.2
		c-1.54,3.28-3.32,6.42-5.55,9.29c-2.05,2.66-4.29,5.14-7.26,6.83c-1.83,1.04-3.73,1.28-5.75,0.59c-1.87-0.64-2.1-1.41-0.47-2.72
		c4.43-3.56,7.76-8.04,10.71-12.85c1.09-1.77,0.7-2.08-1.32-2.28c-3.65-0.36-5.86,0.9-7.4,4.26c-1.57,3.43-3.46,6.71-4.66,10.38
		C9.5,62.5,8.39,59.6,9.39,55.93c0.19-0.69,0.27-1.42,0.38-2.13c0.52-3.29,0.52-3.28-2.73-3.2c-1.35,0.03-2.98,0.67-2.85-1.87
		c0.1-1.96,0.24-3.18,2.79-3.08c4.58,0.16,4.54-0.02,6.04-4.33c3.12-8.99,6.88-17.67,12.4-25.5c0.83-1.18,1.74-2.31,2.73-3.36
		c2.99-3.16,3.61-3.13,7.25-0.61c1.76,1.22,2,2.05,0.27,3.65c-8.28,7.65-13.49,17.25-17.34,27.67c-0.23,0.62-0.7,1.23-0.14,1.68
		c0.66,0.53,1.16-0.22,1.54-0.65c1.7-1.86,3.32-3.79,5.02-5.66c0.85-0.93,1.74-1.86,2.73-2.64c1.73-1.38,3.44-3.42,5.96-2.01
		c2.61,1.46,3.97,3.88,3.95,6.95c0,0.27-0.14,0.57-0.07,0.8c0.37,1.12-1.63,2.72,0.51,3.39c2.65,0.82,4.34-0.13,5.26-2.55
		c3.85-10.04,7.72-20.08,13.56-29.2c0.74-1.16,1.21-3.07,2.87-2.93c2.2,0.19,4.01,1.62,5.56,3.16c0.92,0.91-0.08,1.64-0.61,2.31
		c-6.33,8.03-10.88,17.02-14.62,26.48c-0.87,2.2-0.47,2.56,1.86,2.67c3.48,0.17,6-0.65,7.85-3.82c1.21-2.09,3.17-3.71,5.3-4.98
		c3.16-1.89,4.44-1.67,6.74,1.13c0.45,0.55,0.85,1.15,1.28,1.73c0.8,1.35-0.45,1.67-1.18,2.11c-1.29,0.8-2.72,1.38-3.78,2.5
		c2.76,0.6,4.31-0.6,5.48-3.09C74.73,37.77,75.63,37.74,78.92,39.69z"/>
	<path class="st1" d="M78.92,39.69c-3.61-1.34-3.88-1.45-5.3,2.06c-1.45,3.6-4.14,2.89-7.07,2.81c0.86-2.08,2.66-2.74,4.25-3.63
		c0.84-0.47,1.94-0.59,2.07-1.84C75,38.2,77.15,37.01,78.92,39.69z"/>
	<path class="st2" d="M217.05,46.18c3.54-0.07,3.6-0.02,1.94,2.98c-2.13,3.85-4.14,7.79-7.17,11.05c-0.86,0.93-1.79,2.52-3.25,1.77
		c-1.27-0.66-0.63-2.29-0.42-3.47c0.69-3.96,2.46-7.46,4.6-10.83C213.86,45.91,215.46,46.23,217.05,46.18z"/>
	<path class="st3" d="M57.39,60.8c0.35-3.65,1.92-7.07,3.9-10.33c0.56-0.92,6.1-1.62,7.18-1.06c0.58,0.29,0.5,0.7,0.26,1.09
		c-2.58,4.22-4.9,8.63-8.83,11.86c-0.55,0.45-1.18,0.89-1.97,0.61C57.48,62.8,57.35,62.21,57.39,60.8z"/>
	<path class="st4" d="M23.3,45.45c1.86-3.21,3.95-5.63,6.36-7.78c0.49-0.44,1.14-0.74,1.74-0.38c0.51,0.31,0.47,0.98,0.33,1.49
		c-0.5,1.82-1.05,3.63-1.61,5.43c-0.37,1.21-1.36,1.26-2.4,1.24C26.39,45.43,25.07,45.45,23.3,45.45z"/>
	<path class="st1" d="M97.33,44.06c-0.9-0.24-2.53,0.65-2.99-0.5c-0.43-1.07,1.15-1.83,1.89-2.67c1.14-1.29,2.5-2.32,4.06-3.07
		c0.75-0.36,1.53-0.69,2.3-0.17c0.87,0.6,0.78,1.54,0.66,2.45C102.8,43.29,101.81,43.98,97.33,44.06z"/>
	<path class="st5" d="M123.29,43.27c1.33-2.81,3.56-4.24,5.82-5.6c0.67-0.4,1.68-0.46,2.32,0c0.8,0.58-0.05,1.23-0.25,1.85
		C129.8,43.74,129.81,43.74,123.29,43.27z"/>
</g>
</svg>
