<svg id="Layer_1" data-name="Layer 1" xmlns="http://www.w3.org/2000/svg" viewBox="0 0 284.73 96"><defs><style>.cls-1{fill:#fefefe;}.cls-2{fill:#ededed;}.cls-3{fill:#f6f6f6;}.cls-4{fill:#f8f8f8;}.cls-5{fill:#f0f0f0;}.cls-6{fill:#f1f1f1;}</style></defs><path class="cls-1" d="M.05,95.94q0-47.23,0-94.46C0,0,.48-.08,1.6,0c.81.08,1.63,0,2.45,0q139.16,0,278.3,0c1.95,0,2.38.39,2.37,2.35q-.12,45.5,0,91c0,2.35-.65,2.65-2.79,2.65Q141,95.9.05,95.94Z"/><path d="M78.92,39.69c.35.64.74,1.3.3,2-1.81,2.93.18,2.61,2.15,2.7a5.85,5.85,0,0,0,5.75-3A16.45,16.45,0,0,1,98.2,34c5.77-1,9,1.93,8.32,7.71-.22,1.78.19,2,1.86,2.17,3,.28,4.38-.84,5.5-3.67A139.66,139.66,0,0,1,127.4,13.66c3-4.56,4.44-4.78,8.06.76.86,1.31.61,2.41-.57,3.58-6.69,6.6-11.36,14.53-15.22,23-.32.7-.87,1.35-.12,1.83s1.36-.12,1.83-.73a33.69,33.69,0,0,1,6.06-5.69c1.67-1.3,3.71-2.55,5.59-1.52s2.36,3.18,2.26,5.33a10.26,10.26,0,0,1-.12,1.35c-.21,1.25.21,1.83,1.45,1.2a14.88,14.88,0,0,1,9.79-1.27c1.38.27,1.42-.81,1.68-1.62a35,35,0,0,1,4.25-9.34c.62-.91,1.18-1.89,2.56-1.5,1.65.47,3.39.85,4.54,2.24.51.62-.18,1.16-.53,1.65a51,51,0,0,0-4.36,7.81c-.23.47-1.05,1.09-.12,1.55.6.3,1-.24,1.51-.71,2.08-2,4-4.19,6.6-5.54a5,5,0,0,1,7.53,4.07c.09,1-.48,2.59,1.3,2.34s4.51,1.41,5.54-1.75A97.56,97.56,0,0,1,186.31,20c1.64-2.7,3.43-5.32,5.27-7.88,1.56-2.17,7.22-1.53,8.37.86.55,1.14-.53,1.6-1.07,2.23-6.21,7.15-11.53,14.86-15,23.73-.38,1-1.79,2.33-.46,3a3.65,3.65,0,0,0,4.28-.62,32.87,32.87,0,0,1,5.48-4.85c3.42-2.21,6.17-1.9,9,.94.93.93,1.53,1.72.44,3-.89,1-.31,1.37.81,1.38,2.88,0,5.81.42,7.57-2.77a8.79,8.79,0,0,1,2.54-2.42c4-3.06,6.91-2.1,8.41,2.81.31,1,.53,1.12,1.33.35,1.83-1.76,3.37-1.62,5.14.32,2.19,2.41,7.77,1.39,8.92-1.61.29-.76.62-1.5,1-2.24,1.5-3.29,2.1-3.45,5.34-1.75,1.83,1,2.75,2,1.07,3.9-.53.61-1.5,1.74-.63,2.32a2.75,2.75,0,0,0,3.5-.37A20.77,20.77,0,0,0,250,37.07c.85-1.36,1.87-2.24,3.56-1.64s1.12,2,.78,3.17c-.49,1.66,0,2.33,1.8,2.2s3.73,0,5.65,0c-.13-1.62-1.08-1.13-1.67-1.22-1.64-.26-1.59-1.54-1.64-2.69-.06-1.54,1.2-1.18,1.95-1,2.74.62,4.07-.59,5.11-3a40.89,40.89,0,0,1,3.82-6.54c1.27-1.91,5.8-1.74,7.07.15.56.83-.1,1.34-.45,1.93-1.12,1.86-2.2,3.74-3.39,5.55s-1.08,2.64,1.32,2.31c.36,0,.72-.06,1.09-.08.67,0,1.31,0,1.5.82s-.36,1.1-1,1.33a18,18,0,0,0-1.69.74c-.71.37-1.6.52-.14,1.4s.74,2.52.56,3.77c-.21,1.45-1.61.76-2.48.8-5.1.23-4.19-1-6,4.56A39.58,39.58,0,0,0,263.6,61c-.06,3.55,1.62,4.52,4.72,2.83.45-.25,1.05-.25,1.48-.53s.83-.1,1.11.27-.21.58-.39.81C268.41,67.08,265.67,68,263,67c-3.85-1.47-5.84-4.14-5.6-7.68a50.33,50.33,0,0,1,2.42-11.64c.54-1.72.47-2.55-1.63-2.37-1.87.16-3.63-.39-4.18,2.61-.48,2.64-2.11,2.68-4,.62-3.51-3.76-3.5-3.76-7.18.16-4,4.25-5.65,9.57-7.08,15-.28,1.05.48,3.15-1.81,2.86-1.95-.24-3.83-2.72-3.43-4.48q1.23-5.41,2.75-10.76c1.59-5.61,1.63-5.52-4.18-5.48-1.84,0-2.75.55-3.28,2.37-1.15,3.9-2.42,7.77-2.48,11.88a9.18,9.18,0,0,0,.24,2.68c.4,1.34,1.45,2.65-1,3.13s-4.13-.14-4.63-2.38c-.58-2.62.18-5.19.48-8-1.15.47-1.37,1.5-1.86,2.26a25.87,25.87,0,0,1-6.35,7.34c-2.51,1.84-4.83,1.26-6.31-1.48a12.24,12.24,0,0,1-.93-8.18,27.8,27.8,0,0,1,2.23-7.23c.7-1.46.26-1.75-1.28-1.9-3.74-.35-6.37.65-7.78,4.47-1,2.7-2.61,5.17-3.4,8-.44,1.55-1.41,3.76,2,3,.38-.08.79,0,.8.45a1.54,1.54,0,0,1-.37.94c-1.25,1.47-5.32,2.86-6.42,2.08-2.25-1.62-2.3-3.82-1.6-6.3.91-3.22,2.09-6.34,3.25-9.47.31-.83,1.48-2,.42-2.6a3.6,3.6,0,0,0-3.62.27,6.5,6.5,0,0,0-1.28,1.38,71,71,0,0,0-10.22,16.87c-.41.93-.63,2.56-1.82,2.42-1.43-.17-1.52-1.88-1.7-3a18.23,18.23,0,0,1,.3-6.2c.56-2.92,1.31-5.81,1.83-8.74.15-.87,1.44-2-.14-2.74-1.8-.79-4.79.21-5.26,1.64a33.42,33.42,0,0,1-4.2,8.77,20.93,20.93,0,0,1-9.06,7.53,6.46,6.46,0,0,1-2.9.57,2.3,2.3,0,0,1-2.08-1.06c-.52-1,.54-1.37,1.11-1.86C156,59,158.75,54.16,161.09,49a9.73,9.73,0,0,0,.41-1.55c-2.05,0-3.94,0-5.82,0-1.31,0-1.88.9-2.56,1.74-4.31,5.35-6.24,11.78-8.18,18.17-2,6.65-3.74,13.39-5.63,20.08-.19.66-.07,1.66-.82,1.87-1,.27-1.24-.86-1.86-1.33-1-.78-1.19-2-1.36-3.13-.83-5.93,1-11.48,2.73-17,1.86-5.84,4.11-11.57,6.21-17.34,1.06-2.91,1.07-2.91-2.14-2.83l-1.36,0c-8,.22-8,.24-14.1,4.88-1,.77-.67,1.55-.42,2.39,1.53,5.19,3.73,10.05,8,13.55,1.91,1.55,1.2,2.42-.24,3.49-3.37,2.5-6.47,2-8.37-1.66-2.87-5.46-3.51-11.52-4.48-17.48-.16-1,.61-1.43,1.18-2,.74-.74,1.79-1.22,2.1-2.36-4-1-4.68-.73-6.63,2.41a33.78,33.78,0,0,0-5,15.31c0,.58.29,1.38-.53,1.64s-1.31-.37-1.81-.92c-2.71-3-2.92-6.5-2.21-10.16.45-2.3,1.15-4.55,1.81-6.8.35-1.19.08-1.65-1.22-1.62-5.44.15-10.88.24-16.32.34-.88,0-1.63.19-1.93,1.14-1.21,3.74-1.89,7.53-1,11.45.5,2.3,1.81,2.89,4,1.9a38.43,38.43,0,0,0,7.27-4.21c.41-.31.91-.85,1.41-.41s.21,1.13-.23,1.64a24.81,24.81,0,0,1-9,6.89c-2.19.93-4.1-.21-5.71-1.6C83,61.86,81.8,57,82.68,51.6c.38-2.34-.26-2.75-2.4-2.63-4.3.24-4.39.12-5.48,4.21-1,3.89-2.56,7.8-.79,11.88.28.64.12,1.06-.46,1.3a5.58,5.58,0,0,1-4.23.42c-1.46-.55-1.83-1.91-1.93-3.31-.17-2.45.43-4.81.61-7.37-1.15,1.62-2.27,3.26-3.46,4.86a23,23,0,0,1-4.71,4.85c-3.27,2.4-6,1.56-7.38-2.3-1.24-3.6-.38-7.12.56-10.64.27-1,1.86-2.31,0-3.15-2.16-1-5.83.15-6.35,1.75a74,74,0,0,0-3.75,16.88c-.06.76.28,1.83-.7,2.12s-1.31-.73-1.91-1.25C37.74,67,37.76,64,38,61a48.33,48.33,0,0,1,1.58-8c.23-1,1.65-2.54-.13-2.91-1.6-.33-3.91-1.2-5,1.2a48.79,48.79,0,0,1-5.55,9.29,25,25,0,0,1-7.26,6.83,6.73,6.73,0,0,1-5.75.59c-1.87-.64-2.1-1.41-.47-2.72A48.51,48.51,0,0,0,26.06,52.46c1.09-1.77.7-2.08-1.32-2.28-3.65-.36-5.86.9-7.4,4.26s-3.46,6.71-4.66,10.38C9.5,62.5,8.39,59.6,9.39,55.93a19,19,0,0,0,.38-2.13c.52-3.29.52-3.28-2.73-3.2-1.35,0-3,.67-2.85-1.87.1-2,.24-3.18,2.79-3.08,4.58.16,4.54,0,6-4.33,3.12-9,6.88-17.67,12.4-25.5a30.34,30.34,0,0,1,2.73-3.36c3-3.16,3.61-3.13,7.25-.61,1.76,1.22,2,2.05.27,3.65-8.28,7.65-13.49,17.25-17.34,27.67-.23.62-.7,1.23-.14,1.68s1.16-.22,1.54-.65c1.7-1.86,3.32-3.79,5-5.66a23.47,23.47,0,0,1,2.73-2.64c1.73-1.38,3.44-3.42,6-2a7.49,7.49,0,0,1,4,7c0,.27-.14.57-.07.8.37,1.12-1.63,2.72.51,3.39,2.65.82,4.34-.13,5.26-2.55,3.85-10,7.72-20.08,13.56-29.2.74-1.16,1.21-3.07,2.87-2.93,2.2.19,4,1.62,5.56,3.16.92.91-.08,1.64-.61,2.31-6.33,8-10.88,17-14.62,26.48-.87,2.2-.47,2.56,1.86,2.67,3.48.17,6-.65,7.85-3.82a14.59,14.59,0,0,1,5.3-5C68,34.28,69.3,34.5,71.6,37.3c.45.55.85,1.15,1.28,1.73.8,1.35-.45,1.67-1.18,2.11a17.46,17.46,0,0,0-3.78,2.5c2.76.6,4.31-.6,5.48-3.09C74.73,37.77,75.63,37.74,78.92,39.69Z"/><path class="cls-2" d="M78.92,39.69c-3.61-1.34-3.88-1.45-5.3,2.06s-4.14,2.89-7.07,2.81c.86-2.08,2.66-2.74,4.25-3.63.84-.47,1.94-.59,2.07-1.84C75,38.2,77.15,37,78.92,39.69Z"/><path class="cls-3" d="M217.05,46.18c3.54-.07,3.6,0,1.94,3-2.13,3.85-4.14,7.79-7.17,11.05-.86.93-1.79,2.52-3.25,1.77-1.27-.66-.63-2.29-.42-3.47a29.78,29.78,0,0,1,4.6-10.83C213.86,45.91,215.46,46.23,217.05,46.18Z"/><path class="cls-4" d="M57.39,60.8a24.75,24.75,0,0,1,3.9-10.33c.56-.92,6.1-1.62,7.18-1.06.58.29.5.7.26,1.09-2.58,4.22-4.9,8.63-8.83,11.86a2,2,0,0,1-2,.61C57.48,62.8,57.35,62.21,57.39,60.8Z"/><path class="cls-5" d="M23.3,45.45a30.86,30.86,0,0,1,6.36-7.78,1.46,1.46,0,0,1,1.74-.38c.51.31.47,1,.33,1.49-.5,1.82-1.05,3.63-1.61,5.43-.37,1.21-1.36,1.26-2.4,1.24C26.39,45.43,25.07,45.45,23.3,45.45Z"/><path class="cls-2" d="M97.33,44.06c-.9-.24-2.53.65-3-.5s1.15-1.83,1.89-2.67a12.75,12.75,0,0,1,4.06-3.07,2.18,2.18,0,0,1,2.3-.17c.87.6.78,1.54.66,2.45C102.8,43.29,101.81,44,97.33,44.06Z"/><path class="cls-6" d="M123.29,43.27c1.33-2.81,3.56-4.24,5.82-5.6a2.25,2.25,0,0,1,2.32,0c.8.58-.05,1.23-.25,1.85C129.8,43.74,129.81,43.74,123.29,43.27Z"/></svg>